# xmcd
#
# Track frame offsets:
#	150
#	15466
#	29877
#	36786
#	48264
#	64222
#	81954
#	105585
#	117422
#	147531
#	163226
#	178058
#	198707
#	215157
#	229376
#	249821
#	291813
#	312474
#	333506
#
# Disc length: 4725 seconds
#
# Revision: 1
# Processed by: cddbd v1.5.2PL0 Copyright (c) Steve Scherf et al.
# Submitted via: audiograbber 1.83.01
#
DISCID=29127313
DTITLE=Various Artist - Rage Against The  Death Machine
DYEAR=2009
DGENRE=Alternative
TTITLE0=Abuela - Mambru
TTITLE1=Rantanplan - Stahlhelm and Disneyland
TTITLE2=Wisecräcker - My (incomplete) list of shame
TTITLE3=Müllsch - Why you
TTITLE4=No Te Va Gustar - No Era Cierto
TTITLE5=Kobayashi - Kopfkino
TTITLE6=ZED - Fall
TTITLE7=Audio Kollaps - Schuld
TTITLE8=Grrzzz - Holiday in Gaza
TTITLE9=Kiemsa - Marcher
TTITLE10=Panteón Rococó - Estrella Roja
TTITLE11=Smooth Lee - Poor Boy
TTITLE12=Roque Steady Orchestra - Europa lädt nach
TTITLE13=Francesko - Break out
TTITLE14=YOK - Menschen machen Menschen kaputt
TTITLE15=Laura and Los Angeles - Smoking Voodooclub
TTITLE16=Dub Spencer and Trance Hill - The Chinese Music
TTITLE17=Die Kleinbgeldprinzessin and die Stadtpiraten - In der überwachten Welt
TTITLE18=ewo2 - Free Mumia
EXTD=cd2
EXTT0=
EXTT1=
EXTT2=
EXTT3=
EXTT4=
EXTT5=
EXTT6=
EXTT7=
EXTT8=
EXTT9=
EXTT10=
EXTT11=
EXTT12=
EXTT13=
EXTT14=
EXTT15=
EXTT16=
EXTT17=
EXTT18=
PLAYORDER=
